<?xml version="1.0" encoding="utf-8"?>
<!-- Generator: Adobe Illustrator 16.0.0, SVG Export Plug-In . SVG Version: 6.00 Build 0)  -->
<!DOCTYPE svg PUBLIC "-//W3C//DTD SVG 1.1//EN" "http://www.w3.org/Graphics/SVG/1.1/DTD/svg11.dtd">
<svg version="1.1" id="Layer_1" xmlns="http://www.w3.org/2000/svg" xmlns:xlink="http://www.w3.org/1999/xlink" x="0px" y="0px"
	 width="15.512px" height="15.511px" viewBox="0.244 0.244 15.512 15.511" enable-background="new 0.244 0.244 15.512 15.511"
	 xml:space="preserve">
<path fill="none" stroke="#0099EF" stroke-width="0.7" stroke-miterlimit="10" d="M6.611,14.827l-0.005,0.006l-0.147,0.11
	l-0.496,0.371c-0.138,0.103-0.327,0.12-0.485,0.043c-0.159-0.078-0.255-0.238-0.255-0.414v-0.617v-0.184v-0.009v-0.116v-1.389H3.834
	H2.445c-1.021,0-1.852-0.83-1.852-1.852V2.445c0-1.021,0.83-1.852,1.852-1.852h11.109c1.021,0,1.852,0.83,1.852,1.852v8.332
	c0,1.021-0.83,1.852-1.852,1.852H9.543L6.611,14.827z"/>
<path fill="#0099EF" d="M7.83,3.496c-1.631,0-2.952,1.321-2.952,2.952v0.568c0,0.188-0.152,0.34-0.34,0.34
	c-0.189,0-0.341-0.152-0.341-0.34V6.448c0-2.006,1.627-3.633,3.633-3.633s3.633,1.626,3.633,3.633v2.045
	c0,0.691-0.547,1.257-1.298,1.626l-1.473,0.563c-0.117,0.203-0.336,0.34-0.59,0.34H7.649c-0.376,0-0.681-0.305-0.681-0.682
	c0-0.375,0.305-0.68,0.681-0.68h0.454c0.254,0,0.473,0.137,0.59,0.34l1.475-0.563c0.396-0.313,0.614-0.631,0.614-0.945V6.448
	C10.781,4.817,9.46,3.496,7.83,3.496z"/>
<path fill="#0099EF" d="M4.22,5.767h0.227c0.251,0,0.454,0.203,0.454,0.454V7.81c0,0.251-0.203,0.454-0.454,0.454H4.22
	c-0.5,0-0.908-0.407-0.908-0.908V6.675C3.312,6.173,3.719,5.767,4.22,5.767z"/>
<path fill="#0099EF" d="M11.504,5.767c0.501,0,0.908,0.407,0.908,0.908v0.681c0,0.501-0.407,0.908-0.908,0.908h-0.228
	c-0.251,0-0.454-0.203-0.454-0.454V6.221c0-0.251,0.203-0.454,0.454-0.454H11.504z"/>
</svg>
